<?xml version="1.0" standalone="no"?>
<!DOCTYPE svg PUBLIC "-//W3C//DTD SVG 20010904//EN" "http://www.w3.org/TR/2001/REC-SVG-20010904/DTD/svg10.dtd">
<svg version="1.0" xmlns="http://www.w3.org/2000/svg" width="1536pt" height="1024pt" viewBox="-0 0 1527 723" preserveAspectRatio="xMidYMid meet">
  <metadata>
    Created by Manus - Vectorized from original PNG
  </metadata>
  
  <!-- Groupe pour les éléments gris foncé -->
  <g transform="translate(0,1024) scale(0.1,-0.1)" fill="#404145" stroke="none">
    <path d="M1910 5596 l0 -396 29 0 c16 0 43 -3 60 -6 l31 -6 0 145 0 145 318 4 c308 3 318 4 370 27 116 52 169 179 131 314 -14 51 -73 115 -129 141 -43 20 -64 21 -427 24 l-383 3 0 -395z m766 268 c49 -36 68 -70 68 -122 0 -65 -28 -111 -84 -139 -43 -22 -53 -23 -337 -23 l-293 0 0 155 0 156 309 -3 c295 -3 311 -4 337 -24z"/>
    <path d="M3269 5743 c-1 -137 -1 -315 -2 -397 l0 -150 426 0 427 -1 0 53 0 52 -365 0 -365 0 -2 308 c-1 169 -3 316 -4 327 -1 11 -2 28 -3 38 -1 14 -11 17 -56 17 l-55 0 -1 -247z"/>
    <path d="M5990 5590 l200 -400 58 0 58 0 140 290 c76 159 143 289 148 287 5 -2 69 -129 143 -284 l135 -281 62 -4 c33 -3 62 -5 62 -4 4 3 394 787 394 791 0 3 -31 5 -68 5 l-68 0 -158 -322 -158 -323 -44 90 c-24 50 -94 194 -154 320 -68 143 -115 231 -125 233 -51 11 -57 2 -211 -322 -82 -174 -153 -314 -157 -313 -7 2 -158 310 -277 565 l-34 72 -73 0 -73 0 200 -400z"/>
    <path d="M7760 5593 l0 -398 60 3 60 4 0 394 0 394 -60 0 -60 0 0 -397z"/>
    <path d="M8370 5595 l0 -395 23 -6 c13 -3 41 -4 63 -2 l39 3 5 307 5 307 192 -174 c106 -96 200 -175 208 -175 9 0 102 79 208 176 l192 176 3 -306 2 -306 60 0 60 0 0 395 0 395 -58 0 -57 0 -165 -156 c-91 -85 -184 -171 -208 -191 l-43 -36 -27 24 c-15 14 -97 90 -182 170 -205 191 -201 189 -266 189 l-54 0 0 -395z"/>
    <path d="M11260 5595 l2 -395 81 -2 c212 -5 469 -3 536 4 142 15 245 87 308 215 36 73 38 81 37 177 0 81 -5 113 -23 158 -45 116 -156 202 -291 228 -29 6 -187 10 -352 10 l-299 0 1 -395z m681 269 c63 -29 110 -74 139 -131 21 -40 25 -62 25 -133 -1 -130 -48 -215 -149 -268 l-51 -27 -257 -3 -258 -3 0 296 0 296 253 -3 c231 -3 256 -5 298 -24z"/>
    <path d="M12582 5593 l3 -398 275 -1 c327 -1 393 6 476 46 185 90 263 334 171 533 -38 81 -89 132 -174 174 l-77 38 -338 3 -338 3 2 -398z m698 261 c30 -17 70 -50 87 -73 119 -155 52 -405 -125 -465 -36 -13 -96 -16 -294 -16 l-248 0 0 296 0 295 263 -3 262 -3 55 -31z"/>
    <path d="M6041 4692 c-52 -26 -76 -65 -76 -122 0 -57 24 -96 76 -122 46 -24 123 -23 176 3 42 20 43 22 43 69 0 27 -4 52 -10 55 -14 9 -130 -6 -130 -16 0 -5 25 -9 56 -9 l55 0 -3 -32 c-4 -40 -34 -58 -101 -58 -53 0 -101 20 -117 49 -5 11 -10 38 -10 61 0 23 5 50 10 61 25 46 130 65 192 33 20 -10 34 -12 40 -6 7 7 -3 17 -30 31 -51 26 -125 27 -171 3z"/>
    <path d="M7641 4692 c-52 -26 -76 -65 -76 -122 0 -57 24 -96 76 -122 68 -35 187 -11 224 46 25 37 24 119 -1 153 -45 60 -151 82 -223 45z m180 -41 c49 -49 38 -140 -22 -175 -50 -29 -147 -20 -177 17 -39 46 -31 131 15 167 20 15 40 20 90 20 58 0 68 -3 94 -29z"/>
    <path d="M6780 4565 c0 -113 2 -135 15 -135 12 0 15 13 15 55 l0 55 56 0 c54 0 57 -1 100 -49 37 -41 84 -71 84 -54 0 2 -18 26 -40 52 -46 54 -48 61 -20 61 58 0 82 91 34 129 -23 18 -41 21 -135 21 l-109 0 0 -135z m224 99 c19 -19 21 -54 4 -76 -10 -12 -35 -17 -103 -20 l-90 -3 -3 58 -3 57 90 0 c68 0 93 -4 105 -16z"/>
    <path d="M8400 4615 c0 -107 16 -150 64 -170 73 -31 163 -10 190 44 22 42 23 211 1 211 -12 0 -15 -17 -15 -89 0 -105 -3 -117 -41 -136 -44 -23 -103 -19 -136 9 -26 23 -28 29 -31 120 -3 74 -7 96 -18 96 -11 0 -14 -19 -14 -85z"/>
    <path d="M9210 4567 c0 -112 2 -134 15 -134 11 0 15 13 15 54 l0 53 83 0 c113 0 151 19 155 77 2 32 -2 47 -17 62 -19 19 -33 21 -136 21 l-115 0 0 -133z m221 103 c23 -13 26 -62 3 -84 -12 -12 -37 -16 -105 -16 l-89 0 0 55 0 55 86 0 c47 0 94 -5 105 -10z"/>
  </g>
  
  <!-- Groupe pour les éléments bleus -->
  <g transform="translate(0,1024) scale(0.1,-0.1)" fill="#0252EC" stroke="none">
    <path d="M4940 5887 c-41 -56 -170 -234 -288 -395 -118 -161 -212 -295 -209 -298 11 -12 145 -16 164 -5 12 6 61 68 109 138 156 228 305 433 313 433 4 0 93 -120 197 -267 104 -147 199 -278 212 -291 21 -22 29 -24 97 -20 40 2 77 6 80 10 4 4 -33 60 -82 126 -48 66 -122 166 -163 223 -304 418 -327 449 -343 449 -7 0 -46 -47 -87 -103z"/>
    <path d="M10143 5738 c-238 -319 -383 -523 -383 -536 0 -14 36 -22 98 -22 42 0 57 5 75 23 12 13 107 144 211 290 104 147 192 267 196 267 7 0 182 -241 384 -528 16 -23 41 -45 54 -49 24 -6 141 3 150 11 2 3 -90 134 -206 293 -290 397 -365 496 -379 501 -7 2 -97 -110 -200 -250z"/>
    <path d="M3630 4609 c-404 -5 -793 -10 -865 -11 -277 -6 1358 -19 2030 -16 623 3 710 5 710 18 0 13 -70 15 -570 16 -313 0 -901 -3 -1305 -7z"/>
    <path d="M9940 4595 l0 -27 908 6 c1180 8 2214 18 2210 21 -8 7 -773 16 -1880 22 l-1238 6 0 -28z"/>
  </g>
</svg>
